<svg width="36" height="36" viewBox="0 0 36 36" fill="none" xmlns="http://www.w3.org/2000/svg">
<path d="M14.9385 1.2681C16.8988 0.456149 19.1012 0.456149 21.0615 1.2681L27.6665 4.00398C29.6267 4.81593 31.1841 6.37332 31.996 8.33355L34.7319 14.9385C35.5438 16.8988 35.5438 19.1012 34.7319 21.0615L31.996 27.6665C31.1841 29.6267 29.6267 31.1841 27.6665 31.996L21.0615 34.7319C19.1012 35.5438 16.8988 35.5438 14.9385 34.7319L8.33354 31.996C6.37332 31.1841 4.81593 29.6267 4.00398 27.6665L1.2681 21.0615C0.456149 19.1012 0.456149 16.8988 1.2681 14.9385L4.00398 8.33354C4.81593 6.37332 6.37332 4.81593 8.33355 4.00398L14.9385 1.2681Z" fill="#005299"/>
<path d="M26.7621 13.6778C26.1932 11.7489 24.5843 10.14 22.6554 9.57113C21.1888 9.14447 20.1755 9.18002 19.4732 9.70447C18.6288 10.3356 18.531 11.4734 18.531 12.2822V14.4956C18.531 16.6822 19.5266 17.7934 21.4821 17.7934H24.0332C24.8332 17.7934 25.9799 17.6956 26.611 16.8511C27.1532 16.1578 27.1977 15.1445 26.7621 13.6778Z" fill="white"/>
<path opacity="0.4" d="M24.3089 19.3755C24.0778 19.1089 23.74 18.9577 23.3933 18.9577H20.2111C18.6467 18.9577 17.3755 17.6866 17.3755 16.1222V12.94C17.3755 12.5933 17.2244 12.2555 16.9578 12.0244C16.7 11.7933 16.3444 11.6866 16.0067 11.7311C13.9178 11.9977 11.9978 13.1444 10.7444 14.8689C9.48221 16.6022 9.01999 18.7177 9.41999 20.8333C9.99777 23.8911 12.4422 26.3355 15.5089 26.9133C15.9978 27.0111 16.4867 27.0555 16.9755 27.0555C18.5844 27.0555 20.14 26.5577 21.4644 25.5889C23.1889 24.3355 24.3355 22.4155 24.6022 20.3266C24.6467 19.98 24.54 19.6333 24.3089 19.3755Z" fill="white"/>
</svg>
