<svg width="320" height="145" viewBox="0 0 320 145" fill="none" xmlns="http://www.w3.org/2000/svg">
<g opacity="0.08">
<path d="M254.864 -23.5353C254.196 -21.891 252.014 -19.3869 250.799 -18.023C250.777 -17.9976 250.755 -17.9723 250.733 -17.9469C250.442 -17.6197 250.189 -17.3105 249.882 -16.9365C249.149 -16.0477 248.172 -14.8472 245.874 -12.5378C245.277 -11.8033 244.675 -11.0775 244.056 -10.3516C240.851 -6.64149 237.644 -3.05123 233.355 0.385783C229.741 3.34779 225.034 7.15737 220.628 10.0146C220.526 10.0926 220.421 10.1726 220.314 10.254C219.765 10.6711 219.184 11.1082 218.578 11.554C216.97 12.7384 215.247 13.9338 213.98 14.6476C211.776 15.8904 210.232 16.6641 208.959 17.2873C202.001 21.3648 194.867 25.1341 187.634 28.6527C185.364 29.7564 183.083 30.8366 180.79 31.8938C178.96 32.7376 177.119 33.5641 175.266 34.3698C174.983 34.4929 174.7 34.6156 174.416 34.7379C173.201 35.3532 172.051 35.9459 170.98 36.4864C169.473 37.2468 168.123 37.9042 166.98 38.3747C164.227 39.5108 160.981 40.4456 158.568 41.1006C158.173 41.2082 157.802 41.3083 157.457 41.4018C155.59 42.0725 153.716 42.7275 151.838 43.3638C151.7 43.3649 151.561 43.3647 151.419 43.3639C149.652 43.353 147.669 43.9451 144.521 44.8193C143.157 45.1972 141.558 45.6305 139.675 46.0764C138.458 46.3642 137.786 46.3212 137.237 46.2864C137.076 46.276 136.926 46.2662 136.776 46.2652C136.26 46.2623 135.774 46.5228 135.211 46.826C134.47 47.2216 133.584 47.6934 132.281 47.7624C128.126 47.9769 126.483 48.8121 125.212 49.4596C124.848 49.6468 124.505 49.8179 124.151 49.9458C123.601 50.1453 122.892 50.29 122.188 50.3788C122.104 50.4003 121.847 50.4241 121.76 50.4348C120.982 50.4369 120.201 50.3808 119.542 50.2982C118.498 50.1736 116.462 50.4891 114.937 50.8157C114.356 50.9397 113.539 50.9865 112.627 51.0351C111.631 51.0881 110.538 51.1426 109.327 51.2972C106.306 51.6847 104.665 51.852 103.383 51.9843C103.002 52.022 102.652 52.0556 102.308 52.0895C101.219 52.1969 99.8412 52.2862 98.4595 52.3586C96.7984 52.4463 95.1053 52.507 93.7918 52.5808C90.4102 52.343 86.9746 51.979 83.4181 51.1207C82.6909 50.9432 81.9867 50.687 81.3551 50.3749C81.3239 50.3687 81.2329 50.3395 81.2019 50.332C80.873 50.1214 80.7855 49.9637 80.6121 49.7737C80.4458 49.5857 80.2005 49.3819 79.9304 49.1663C78.9977 48.4523 78.1834 47.5977 78.0959 46.6093C78.0112 45.6332 78.5085 44.5836 79.8734 43.8212C80.6368 43.3539 82.1507 43.1586 83.3145 43.3236L83.1878 43.2882C83.7756 43.2917 84.3662 43.336 84.9601 43.4227C87.9392 43.8569 91.1603 43.907 94.3881 43.8788C98.357 43.8364 102.364 43.6571 106.404 43.5172C109.227 43.4177 112.051 43.3048 114.89 43.1868C115.179 43.1748 115.47 43.1629 115.765 43.1505C117.713 42.8373 119.626 42.5291 121.212 42.3182L120.632 42.3941C120.955 42.3078 121.266 42.2273 121.559 42.1545C122.889 41.8233 123.895 41.7459 124.761 41.6766C125.347 41.6309 125.889 41.5837 126.394 41.4629C126.668 41.3974 127.05 41.2986 127.502 41.18C129.35 40.6976 132.492 39.8439 135.421 39.3568C136.729 39.14 138.254 38.9645 139.722 38.7827C141.813 38.5256 143.766 38.2586 144.692 37.9136C146.317 37.3097 148.257 36.8717 149.963 36.4689C151.592 36.0854 153.014 35.7333 153.758 35.3248C154.642 34.8379 155.473 34.6554 156.704 34.3749C157.559 34.1795 158.607 33.9364 159.995 33.5005C161.598 32.9962 162.762 32.7243 163.752 32.489C165.143 32.1567 166.193 31.8978 167.597 31.112C169.159 30.238 170.803 29.4003 172.175 28.9135C172.393 28.8363 172.619 28.7492 172.851 28.6549C173.286 28.4782 173.743 28.2766 174.21 28.0682C175.163 27.643 176.156 27.1886 177.108 26.8571C177.888 26.5861 178.592 26.4719 179.211 26.3707C179.404 26.3389 179.588 26.3086 179.767 26.2736C180.366 25.9892 180.955 25.7043 181.549 25.4114C181.632 25.337 181.718 25.2573 181.808 25.1743C182.26 24.7584 182.812 24.2466 183.563 23.7511C184.75 22.9677 185.904 22.4966 187.113 21.9926C188.06 21.5965 189.041 21.1793 190.091 20.5707C190.814 20.1519 191.599 19.6298 192.38 19.103C193.535 18.3238 194.673 17.5384 195.527 17.1237C195.852 16.9658 196.178 16.9139 196.501 16.8631C196.502 16.863 196.504 16.863 196.505 16.8629C196.527 16.8595 196.549 16.8558 196.571 16.8523C198.527 15.5934 200.46 14.2957 202.37 12.9641C202.524 12.8302 202.68 12.6959 202.832 12.5633C203.589 11.9097 204.313 11.2721 204.725 10.7629C205.172 10.2105 206.518 9.1778 207.922 8.06657C208.848 7.3356 209.789 6.57834 210.528 5.91592C210.966 5.52421 211.473 5.32062 212.016 5.09448C212.488 4.90125 212.99 4.68911 213.428 4.35425C213.447 4.33975 213.466 4.32502 213.485 4.31007C213.721 4.12257 213.946 3.89703 214.186 3.65556C214.405 3.43756 214.627 3.21354 214.873 2.9946C215.108 2.78663 215.696 2.44035 216.445 1.98806C216.91 1.7069 217.429 1.39074 217.972 1.03612C219.269 -0.0552434 220.537 -1.16104 221.771 -2.28916C221.968 -2.59626 222.104 -2.89795 222.171 -3.19378C222.216 -3.40399 222.224 -3.61591 222.235 -3.83525C222.246 -4.13071 222.262 -4.44048 222.36 -4.76306C222.443 -5.02032 222.605 -5.23689 222.781 -5.31529C222.863 -5.35127 222.944 -5.35464 223.02 -5.36062C223.106 -5.36685 223.183 -5.37242 223.238 -5.42277C223.277 -5.45923 223.294 -5.52372 223.316 -5.60317C223.352 -5.73191 223.396 -5.89557 223.56 -6.04588C224.168 -6.60176 224.921 -7.23676 225.736 -7.88646C225.902 -8.01829 226.07 -8.15017 226.238 -8.2813C226.757 -8.67505 227.279 -9.11939 227.685 -9.52681C228.238 -10.08 229.166 -10.79 230.097 -11.5531C230.754 -12.0919 231.396 -12.6357 231.92 -13.1465C232.435 -13.6478 232.884 -14.2592 233.308 -14.8479C233.827 -15.5649 234.318 -16.2598 234.875 -16.719C234.988 -16.8132 235.221 -16.8528 235.514 -16.906C235.723 -16.9454 235.954 -16.9813 236.198 -17.0517C236.799 -17.7568 237.398 -18.4595 237.998 -19.1641C238.003 -19.202 238.008 -19.241 238.014 -19.2803C238.014 -19.281 238.014 -19.2818 238.014 -19.2825C238.133 -20.175 238.29 -21.3917 239.51 -22.2796C239.822 -22.5067 240.113 -22.577 240.376 -22.6411C240.631 -22.6996 240.859 -22.7522 241.052 -22.9452C241.271 -23.1637 241.425 -23.5157 241.59 -23.8953C241.813 -24.4201 242.074 -25.0221 242.585 -25.4163C242.62 -25.443 242.657 -25.4715 242.696 -25.5016C243.06 -25.7834 243.617 -26.2249 244.288 -26.5419C245.588 -28.0663 246.879 -29.5773 248.178 -31.1035C250.342 -33.6444 252.512 -36.2024 254.657 -38.7673C255.705 -40.0191 256.987 -41.0128 258.253 -41.5205C259.515 -42.0225 260.661 -42.012 261.448 -41.4454C262.235 -40.8802 262.61 -39.796 262.525 -38.4334C262.436 -37.0666 261.88 -35.5247 260.993 -34.1319C259.547 -31.8649 258.088 -29.6043 256.599 -27.3594C256.53 -27.2347 256.461 -27.1102 256.391 -26.9872C255.873 -26.0723 255.5 -25.129 255.125 -24.1858C255.038 -23.9683 254.952 -23.7511 254.864 -23.5353Z" fill="#005299"/>
<path d="M-122.027 63.5188C-119.872 63.3425 -115.86 64.0772 -113.649 64.4804C-113.609 64.4876 -113.568 64.4948 -113.528 64.5019C-113.005 64.5973 -112.508 64.6709 -111.922 64.7568C-110.532 64.9608 -108.654 65.2372 -104.763 66.0565C-103.615 66.1991 -102.476 66.3451 -101.33 66.4977C-90.7255 67.9061 -80.111 69.5934 -69.579 71.2239C-67.8574 71.4888 -66.1504 71.7493 -64.4483 72C-64.2927 72.0146 -64.1355 72.0292 -63.9779 72.0437C-60.8968 72.333 -57.131 72.6151 -54.8174 72.907C-51.8708 73.2886 -49.9088 73.48 -48.2828 73.604C-44.3957 73.649 -40.4664 73.2377 -36.421 72.6371C-30.8498 71.8093 -25.2574 70.7103 -19.7285 69.4071C-16.738 68.7005 -13.7675 67.9298 -10.8165 67.0867C-8.10026 66.3105 -5.40107 65.4784 -2.72791 64.5857C-1.19667 63.9848 0.239639 63.3753 1.565 62.7962C3.09671 62.1271 4.47753 61.4994 5.67586 60.9808C5.93599 60.8683 6.18697 60.7612 6.42875 60.66C9.72015 59.2894 13.5049 57.857 16.2974 56.7088C16.7488 56.5244 17.187 56.3426 17.5805 56.1769C19.7231 55.102 21.8456 53.9776 23.9435 52.8179C24.105 52.7781 24.2678 52.7392 24.4328 52.7002C26.4872 52.214 28.724 51.0211 32.2176 49.062C33.6813 48.2429 35.3503 47.2915 37.3668 46.2084C37.4581 46.1595 37.5497 46.1104 37.6414 46.0612C38.9766 45.3446 39.7503 45.1321 40.3899 44.9548C40.5778 44.9025 40.7529 44.8536 40.9243 44.7962C41.5047 44.6038 42.0021 44.1504 42.5626 43.6228C43.2944 42.9348 44.1615 42.1075 45.5806 41.4612C50.1081 39.3739 51.5199 37.5845 52.5643 36.3001C52.8681 35.9195 53.1439 35.5699 53.45 35.248C54.4472 34.2058 56.1013 33.0031 57.4219 32.1247C58.472 31.4355 60.1651 29.5818 61.3868 28.0736C61.8412 27.5141 62.5377 26.8405 63.3669 26.0442C63.3783 26.0332 63.3898 26.0222 63.4013 26.0112C64.2606 25.1857 65.2468 24.2305 66.2091 23.132C68.6386 20.3544 69.8007 18.8675 70.6798 17.6826C70.9327 17.3402 71.1551 17.029 71.3735 16.7121C72.0661 15.7112 72.8381 14.5143 73.5606 13.175C73.9833 12.3973 74.4018 11.5661 74.8056 10.7397L74.5117 11.3884C74.7208 10.669 74.9007 9.83311 75.0677 9.03028C75.2719 8.39178 75.4878 7.69639 75.7986 6.88224C75.8914 6.62957 75.967 6.46799 76.0374 6.32098C76.0912 6.2109 76.1377 6.12202 76.186 6.03226C76.2887 5.8422 76.3458 5.74713 76.4283 5.60717C76.5687 5.37229 76.7056 5.15518 76.8335 4.95624C77.0912 4.55596 77.3434 4.17895 77.5893 3.81545C78.0847 3.08378 78.5753 2.37646 79.0638 1.67395C80.0401 0.271061 81.0114 -1.11362 81.9601 -2.49268C83.1236 -4.18143 84.5114 -5.59607 85.8223 -6.43758C87.1351 -7.26947 88.2675 -7.51451 89.1799 -7.13637C90.1086 -6.79009 90.6059 -5.51576 90.4799 -3.81466C90.358 -2.10723 89.655 -0.115036 88.5926 1.70816C87.7249 3.19679 86.8477 4.66996 85.9827 6.12705C85.5509 6.85491 85.1197 7.58189 84.7064 8.29355C84.5025 8.64528 84.2965 9.00373 84.1137 9.33525C84.0238 9.49837 83.9331 9.66648 83.8674 9.79749C83.8298 9.87143 83.8069 9.92104 83.7903 9.9606C83.7806 9.98008 83.7737 10.0354 83.8802 9.76346C83.7107 10.3146 83.5326 11.0434 83.3328 11.83C83.1378 12.594 82.9204 13.4252 82.6201 14.3187C82.5706 14.4386 82.4234 14.7916 82.3558 14.9022C80.4255 18.9167 77.2558 23.1714 74.1433 26.3178C72.3635 28.1725 70.5541 29.9201 68.7231 31.6442C67.9208 32.3986 67.1162 33.1561 66.3025 33.9155C66.0317 34.1683 65.7592 34.4215 65.4856 34.675C63.4578 36.947 61.2894 39.2139 59.6368 40.7015C58.2753 41.9336 57.1339 42.6656 56.1594 43.2738C55.4869 43.6926 54.889 44.0539 54.3249 44.4787C54.0212 44.7073 53.6138 45.0203 53.1152 45.394C51.0864 46.9317 47.5484 49.3709 44.0813 51.0946C43.1012 51.5865 42.0199 52.0759 40.8895 52.5642C40.2779 52.8238 39.6364 53.0983 39.0225 53.3596C36.583 54.4054 34.2851 55.3858 33.2204 56.0607C31.3543 57.2495 29.0545 58.3433 27.0042 59.2759C25.0521 60.1658 23.3254 60.913 22.4355 61.525C21.3689 62.2575 20.3475 62.653 18.8246 63.2191C17.7676 63.6105 16.4656 64.0863 14.7267 64.7851C12.7157 65.5915 11.2431 66.032 9.9909 66.3979C9.25464 66.6128 8.60413 66.7966 7.9482 67.0096C7.03393 67.3056 6.13008 67.6526 5.04605 68.1814C2.99057 69.1851 0.784664 70.0934 -1.01965 70.5893C-1.84217 70.816 -2.7668 71.1178 -3.73139 71.4255C-5.00832 71.8332 -6.35512 72.2502 -7.6144 72.523C-8.6528 72.7481 -9.54747 72.8035 -10.3369 72.8493C-10.5826 72.8635 -10.8204 72.8775 -11.0481 72.8949C-11.8573 73.1229 -12.6699 73.3493 -13.4791 73.573C-13.603 73.6384 -13.7327 73.7086 -13.8682 73.7814C-14.5467 74.1463 -15.3846 74.5928 -16.4654 74.983C-18.1765 75.6001 -19.7444 75.8781 -21.4021 76.1585C-22.695 76.3768 -24.0312 76.5937 -25.5443 76.9671C-26.5802 77.2226 -27.7359 77.5554 -28.8991 77.8797C-30.6183 78.3606 -32.3271 78.8142 -33.5472 78.9714C-34.0007 79.0298 -34.4149 78.9843 -34.821 78.9368C-34.8228 78.9364 -34.8246 78.936 -34.8264 78.9356C-34.854 78.9324 -34.8815 78.9293 -34.9089 78.9261C-35.0302 78.9522 -35.151 78.978 -35.2711 79.0036C-38.0701 79.5986 -40.9295 80.153 -43.8583 80.5305C-44.1196 80.5861 -44.3879 80.6405 -44.6521 80.6924C-45.9452 80.9476 -47.2168 81.1505 -48.0466 81.3781C-48.9448 81.6304 -51.2341 81.7914 -53.6133 81.8237C-55.1739 81.8497 -56.7673 81.8354 -58.0635 81.8567C-58.8148 81.8698 -59.5225 81.6851 -60.2383 81.4921C-60.908 81.3118 -61.6017 81.1228 -62.3496 81.0788C-62.7267 81.0566 -63.1571 81.0645 -63.5877 81.0751C-63.9701 81.084 -64.4003 81.0902 -64.8175 81.0769C-65.2085 81.0642 -66.0832 80.9015 -67.1965 80.689C-67.8813 80.5581 -68.6707 80.4069 -69.4782 80.2628C-69.8589 80.232 -70.2451 80.2002 -70.6372 80.1672C-72.4286 80.0185 -74.2239 79.8616 -76.0292 79.6965C-76.489 79.7495 -76.8991 79.8411 -77.2343 79.9822C-77.4745 80.0836 -77.6869 80.2139 -77.9034 80.3472C-78.1919 80.5293 -78.4915 80.7172 -78.8921 80.8468C-79.2052 80.9481 -79.5639 80.9591 -79.7943 80.8719C-79.9026 80.8311 -79.9776 80.7704 -80.0473 80.7153C-80.1269 80.6523 -80.1981 80.5961 -80.2924 80.5856C-80.3605 80.5781 -80.436 80.6062 -80.5288 80.64C-80.6772 80.694 -80.8702 80.7635 -81.1485 80.7317C-82.1933 80.6122 -83.3501 80.4352 -84.4923 80.2595C-85.7657 80.0637 -86.9987 79.8729 -88.0048 79.7709C-89.113 79.6591 -90.6814 79.3159 -92.2536 78.9712C-93.3414 78.7319 -94.4495 78.4899 -95.3859 78.327C-96.3083 78.1669 -97.2959 78.1139 -98.239 78.0645C-99.384 78.0036 -100.469 77.9472 -101.379 77.7037C-101.562 77.6545 -101.778 77.4744 -102.04 77.2501C-102.227 77.091 -102.442 76.9088 -102.693 76.7339C-103.868 76.5775 -105.033 76.4158 -106.208 76.2471C-106.252 76.2618 -106.297 76.2766 -106.343 76.2918C-106.344 76.2922 -106.344 76.2926 -106.345 76.293C-107.367 76.6383 -108.78 77.1081 -110.57 76.4744C-111.028 76.3129 -111.301 76.0916 -111.547 75.8923C-111.788 75.6966 -112 75.5221 -112.338 75.4459C-112.722 75.3594 -113.194 75.396 -113.711 75.4353C-114.44 75.4902 -115.239 75.5533 -116.009 75.2902C-116.061 75.2722 -116.118 75.2527 -116.177 75.2328C-116.737 75.0438 -117.554 74.766 -118.352 74.3208C-120.836 73.8948 -123.321 73.4525 -125.8 73.0007C-129.934 72.2472 -134.068 71.4654 -138.196 70.6838C-140.204 70.3023 -142.083 69.5867 -143.415 68.6699C-144.747 67.7521 -145.425 66.7136 -145.293 65.7531C-145.162 64.7926 -144.232 63.9743 -142.703 63.4469C-141.173 62.9205 -139.172 62.7346 -137.135 62.9048C-133.812 63.1845 -130.489 63.4637 -127.169 63.7553C-126.993 63.7589 -126.817 63.7631 -126.642 63.7685C-125.34 63.8084 -124.107 63.7007 -122.878 63.5918C-122.595 63.5669 -122.311 63.5419 -122.027 63.5188Z" fill="#005299"/>
<path d="M-90.4573 116.734C-87.9358 116.712 -83.9179 117.146 -80.3551 117.592C-78.5269 117.821 -76.8287 118.05 -75.5057 118.223C-75.4344 118.232 -75.3635 118.241 -75.2929 118.251C-74.3575 118.372 -73.4818 118.467 -72.4625 118.569C-70.0397 118.735 -66.7572 119.381 -60.614 119.107C-60.0367 119.041 -59.4537 118.964 -58.8611 118.877C-57.595 118.69 -56.3363 118.462 -55.0898 118.191C-47.523 116.543 -39.9672 113.27 -32.56 109.565C-20.6423 103.501 -8.84915 96.4528 2.79479 89.335C3.0296 89.181 3.26642 89.0255 3.50347 88.8697C5.17218 87.7727 6.99011 86.5682 8.77778 85.3827C11.9995 83.251 15.153 81.1334 17.6501 79.6555C21.52 77.2823 25.3586 75.7361 28.1028 75.0165C28.808 74.8182 29.4509 74.646 30.0938 74.478C34.6465 73.1314 39.278 72.0283 44.0484 71.3189C46.4448 70.968 48.8537 70.7134 51.3704 70.6586C52.6328 70.6351 53.9134 70.6578 55.2845 70.8093C56.729 71.0824 57.9483 70.8537 60.4508 72.6427C65.0455 76.7801 71.229 78.949 77.8133 80.6692C79.0717 81.0054 80.3158 81.1503 81.7093 81.1662C86.6748 81.1519 92.2027 80.0726 97.5676 79.0634C101.542 78.2897 105.49 77.4486 109.487 76.569C110.458 76.355 111.509 76.1206 112.482 75.9004C115.351 75.1651 118.099 74.4208 120.608 73.7326C124.159 72.7594 127.309 71.8805 129.934 71.2158C136.26 69.6153 143.48 68.0492 148.851 66.8663C149.728 66.6734 150.556 66.4908 151.321 66.3204C155.544 65.2181 159.762 64.1014 163.979 62.9729C164.272 62.9394 164.566 62.9069 164.866 62.8743C168.602 62.4663 173.046 61.3421 180.012 59.5394C183.053 58.7516 186.565 57.8366 190.722 56.7766C192.189 56.4025 193.327 56.1711 194.181 56.0333C194.899 55.9132 195.462 55.8462 195.967 55.7866C196.294 55.749 196.631 55.7056 196.953 55.6569C198.049 55.4916 199.147 55.051 200.424 54.5311C202.076 53.8575 204.07 53.043 206.854 52.4749C215.687 50.6686 219.209 48.8311 221.871 47.4675C222.652 47.0631 223.358 46.6925 224.1 46.3529C225.857 45.549 228.257 44.6836 230.526 43.969C231.347 43.7111 232.162 43.4684 232.908 43.2579C235.119 42.6313 239.315 40.8726 242.469 39.4469C243.661 38.9074 245.314 38.2926 247.259 37.5675C249.271 36.8168 251.597 35.9474 254.045 34.9148C260.227 32.3054 263.479 30.8866 266.075 29.7338C266.808 29.407 267.495 29.0986 268.182 28.7853C268.316 28.7242 268.451 28.6627 268.586 28.6007C270.643 27.6611 273.085 26.5064 275.431 25.2294C278.445 23.6028 281.262 21.7312 282.942 20.1565C284.4 19.0077 285.573 17.6775 285.945 16.7933L285.75 17.4075C287.04 12.4888 288.496 7.67024 290.024 2.88622C291.161 -0.668001 292.649 -3.95619 294.131 -6.24457C294.137 -6.26651 294.16 -6.33101 294.168 -6.35271C294.18 -6.37011 294.192 -6.38747 294.204 -6.40475C295.782 -8.6353 297.179 -9.70469 298.109 -9.37096C299.039 -9.03698 299.437 -7.32272 299.235 -4.59803C299.233 -4.57692 299.232 -4.55575 299.23 -4.53454L299.258 -4.61794C299.154 -1.90779 298.517 1.59068 297.55 5.12241C296.248 9.87482 295.024 14.6383 293.969 19.3949C293.941 19.5015 293.847 19.8143 293.804 19.9159C292.378 23.4434 290.049 25.5541 287.856 27.3925C282.739 31.4574 277.302 34.0189 271.822 36.3871C268.667 37.7243 265.505 38.9787 262.339 40.1981C256.334 42.5079 250.317 44.7094 244.305 46.892C243.686 47.1168 243.067 47.3411 242.449 47.5649C239.275 48.908 236.106 50.2414 233.345 51.4022C231.794 52.0537 230.365 52.6534 229.107 53.1653C226.212 54.3461 223.976 55.0387 222.057 55.598C220.735 55.984 219.563 56.311 218.403 56.7056C217.779 56.9181 216.934 57.2094 215.901 57.555C211.707 58.9738 204.61 61.1295 198.017 62.6529C197.403 62.7948 196.753 62.9411 196.069 63.0919C193.646 63.6226 191 64.154 188.442 64.662C183.791 65.5851 179.439 66.4279 177.31 67.0554C173.555 68.1625 169.173 69.1458 165.303 70.0047C161.613 70.824 158.384 71.5324 156.596 72.1434C154.463 72.8728 152.582 73.2532 149.787 73.8141C147.848 74.2029 145.47 74.6788 142.255 75.4122C138.544 76.2584 135.892 76.7478 133.641 77.1605C130.464 77.7424 128.079 78.1748 124.612 79.2106C120.754 80.3623 116.693 81.4451 113.446 82.0756C112.632 82.2336 111.701 82.4302 110.794 82.6261C110.043 82.7883 109.299 82.9519 108.534 83.1193C106.221 83.6251 103.765 84.1511 101.508 84.5131C99.6344 84.814 98.0791 84.9206 96.6881 85.0093C96.2616 85.0355 95.8268 85.0647 95.433 85.0916C93.9476 85.3657 92.4652 85.6273 90.9669 85.8693C90.7257 85.9386 90.4766 86.0118 90.2215 86.0861C88.9072 86.4613 87.2668 86.9216 85.1482 87.2165C82.2291 87.6183 79.213 87.5764 76.2899 86.7202C75.9382 86.6182 75.5982 86.5172 75.2432 86.4106C72.9768 85.7244 70.6171 84.9678 67.88 83.9998C66.0167 83.3384 63.8739 82.5093 61.8131 81.4513C59.6909 80.3724 57.6842 79.0407 56.1338 77.7431C56.3793 77.9356 56.2817 77.8365 56.1387 77.7954C55.9835 77.7393 55.7674 77.6788 55.5436 77.6251C54.9866 77.4927 54.4118 77.321 53.8208 77.172C53.8182 77.1712 53.8156 77.1703 53.813 77.1694C53.7728 77.1594 53.732 77.1496 53.691 77.1398C48.9791 77.0992 43.8605 78.137 38.974 79.4336C38.552 79.5696 38.1268 79.7092 37.7088 79.8496C35.6557 80.5363 33.6825 81.2831 32.4448 81.8919C32.0293 82.0945 31.4369 82.347 30.6813 82.6573C28.9901 83.3489 26.9259 84.2568 24.7767 85.6499C22.7397 86.9507 20.506 88.5754 18.7158 89.9047C17.6665 90.6875 16.5571 91.2759 15.4123 91.879C14.8403 92.1803 14.2671 92.4804 13.6674 92.8244C13.1728 93.1063 12.6435 93.4306 12.1372 93.7783C11.5715 94.1661 10.9985 94.6009 10.3736 95.0723C9.82732 95.4848 9.24828 95.9209 8.62491 96.3607C8.05232 96.7649 6.6917 97.5621 4.95147 98.5702C3.8785 99.1917 2.64786 99.9019 1.37071 100.649C-1.90298 102.804 -5.19994 104.935 -8.52118 107.028C-9.16564 107.546 -9.70166 108.034 -10.0914 108.479C-10.3711 108.799 -10.5867 109.11 -10.8088 109.428C-11.1106 109.86 -11.4258 110.309 -11.9261 110.813C-12.3161 111.206 -12.8372 111.579 -13.2331 111.745C-13.4178 111.822 -13.5748 111.855 -13.7172 111.886C-13.881 111.921 -14.0271 111.952 -14.1757 112.041C-14.2828 112.105 -14.376 112.203 -14.491 112.322C-14.6752 112.513 -14.9113 112.759 -15.3485 113.017C-16.966 113.972 -18.8366 115.008 -20.6869 116.008C-22.7454 117.12 -24.7806 118.185 -26.3971 119.064C-26.7047 119.231 -27.035 119.403 -27.3828 119.579C-29.1159 120.456 -31.3702 121.454 -33.6524 122.388C-35.5781 123.178 -37.5228 123.922 -39.2035 124.565C-40.8549 125.198 -42.5426 125.924 -44.2291 126.586C-46.2383 127.377 -48.2508 128.071 -50.0212 128.405C-50.3852 128.475 -50.8571 128.44 -51.4536 128.39C-51.8746 128.353 -52.355 128.308 -52.9016 128.283C-54.3845 128.605 -55.8977 128.874 -57.3984 129.083C-58.1475 129.188 -58.9063 129.281 -59.6734 129.357C-59.7524 129.386 -59.834 129.415 -59.9157 129.444C-59.9169 129.445 -59.9182 129.445 -59.9195 129.446C-61.7449 130.112 -64.5249 130.926 -68.101 130.354C-69.0039 130.211 -69.5582 129.99 -70.0469 129.791C-70.5321 129.595 -70.9597 129.418 -71.5905 129.335C-72.3146 129.241 -73.1659 129.265 -74.0941 129.285C-75.3964 129.312 -76.8438 129.332 -78.2523 129.022C-78.3517 129.001 -78.4511 128.978 -78.5577 128.955C-79.3428 128.784 -80.402 128.549 -81.5311 128.222C-81.8642 128.124 -82.2079 128.017 -82.5557 127.9C-87.023 127.314 -91.4892 126.7 -95.9536 126.074C-103.387 125.031 -110.823 123.95 -118.249 122.868C-121.864 122.341 -125.287 121.484 -127.767 120.462C-130.247 119.439 -131.579 118.34 -131.467 117.377C-131.354 116.414 -129.805 115.651 -127.157 115.226C-124.509 114.801 -120.981 114.754 -117.342 115.07C-111.413 115.586 -105.476 116.102 -99.55 116.625C-99.2364 116.641 -98.9229 116.657 -98.6124 116.675C-96.2931 116.805 -94.1282 116.778 -91.9555 116.751C-91.4517 116.746 -90.9601 116.738 -90.4573 116.734Z" fill="#005299"/>
<path d="M-42.9876 35.4971C-41.8642 35.5689 -40.2223 36.6222 -39.336 37.1567C-39.3198 37.1664 -39.3035 37.1761 -39.2874 37.1857C-39.0816 37.3114 -38.865 37.4207 -38.6299 37.5373C-38.0562 37.8146 -37.2763 38.2218 -35.8376 39.0699C-35.3891 39.2208 -34.9515 39.3585 -34.5306 39.4798C-33.6373 39.737 -32.8279 39.9082 -31.9889 40.0066C-27.2446 40.5536 -22.5535 40.8509 -17.6774 40.9004C-17.6017 40.893 -17.5245 40.8853 -17.4461 40.8775C-15.9365 40.7282 -14.0793 40.5 -12.8824 40.5437C-12.7662 40.5481 -12.6523 40.5525 -12.5405 40.5569C-11.1898 40.61 -10.2809 40.6753 -9.48812 40.7272C-4.73173 40.4427 -0.0181052 39.7496 4.34817 38.1904C5.71529 37.7028 7.05263 37.1272 8.34367 36.4637C9.53508 35.8521 10.6927 35.1691 11.8323 34.424C12.4551 33.9156 13.0214 33.4013 13.5517 32.9125C14.2936 32.2278 14.9618 31.5965 15.5603 31.1286C16.9987 29.9992 18.8912 28.9135 20.3643 28.1592C20.6057 28.0344 20.8318 27.92 21.043 27.8133C21.5184 27.4961 21.9934 27.1884 22.4872 26.8816L21.9993 27.2058C22.5035 26.761 23.0018 26.3104 23.4949 25.8543C23.5804 25.834 23.6673 25.8145 23.7559 25.7949C24.8616 25.548 25.8186 24.7381 27.282 23.4166C27.9194 22.8401 28.6532 22.1643 29.5389 21.3843C30.1094 20.8815 30.5333 20.7585 30.8804 20.6576C30.9825 20.6279 31.0782 20.5997 31.1686 20.5644C31.4782 20.4434 31.6174 20.1192 31.78 19.7365C31.9911 19.2397 32.2418 18.6438 32.9647 18.2528C35.2699 17.0012 35.7148 15.8519 36.0495 14.9924C36.132 14.7796 36.2087 14.5832 36.3057 14.4053L36.203 14.5126C36.1484 14.5568 36.1306 14.5644 36.1227 14.5602C36.2385 14.13 37.0929 13.2415 37.7282 12.7678C38.2495 12.3684 38.8452 11.1992 39.1952 10.2838C39.3389 9.92176 39.6102 9.53322 39.9506 9.04653C40.2918 8.5584 40.6944 7.98312 41.0432 7.30942C41.9201 5.6131 42.3939 4.72174 42.7787 4.00092C42.889 3.79456 42.9901 3.60573 43.0916 3.41441C43.4121 2.81034 43.8392 2.08175 44.2736 1.34308C44.793 0.459509 45.3178 -0.431766 45.6851 -1.14927C46.9685 -2.74359 48.2908 -4.33592 49.6327 -5.91522C50.3198 -6.72113 51.3057 -7.30448 52.3765 -7.48734C53.4148 -7.64516 54.6459 -7.55161 55.2724 -6.7623C55.9006 -6.00434 56.4419 -5.19781 56.5859 -4.1929C56.7383 -3.20248 56.5058 -2.14671 55.9691 -1.27968C54.8782 0.478786 53.7809 2.28826 52.6687 4.0702C51.3105 6.24679 49.9206 8.4024 48.4424 10.5022C47.4093 11.9697 46.3557 13.4268 45.2773 14.8801C45.1661 15.0299 45.0581 15.1744 44.9486 15.321C44.2554 16.7208 43.5941 18.0378 42.9493 19.0442C42.9093 19.1066 42.8708 19.1647 42.8334 19.2192C42.7853 19.2881 42.7329 19.3602 42.685 19.4241C42.592 19.544 42.5024 19.6741 42.1992 20.0048C42.1684 20.033 42.087 20.1287 42.055 20.1555C41.6718 20.5052 41.3104 20.7445 40.9866 20.9589C40.6645 21.1725 40.3801 21.3607 40.1473 21.6077C40.023 21.7397 39.8559 21.9272 39.6559 22.1514C38.8372 23.0687 37.4328 24.6333 35.8697 25.7979C35.1773 26.3142 34.3082 26.8485 33.4722 27.3501C32.2773 28.0685 31.15 28.7161 30.7189 29.2009C29.9626 30.0542 28.8909 30.8062 27.9338 31.4514C27.2817 31.8918 26.6839 32.2838 26.2743 32.6417C26.1859 32.6993 25.9368 32.8872 25.8403 32.9299C25.6748 33.0346 25.5396 33.1412 25.4418 33.2511C25.0363 33.7099 24.5683 33.8936 23.8656 34.191C23.3808 34.3965 22.7821 34.6595 22.0159 35.1221C21.1322 35.6565 20.4404 35.9683 19.8483 36.2337C19.0131 36.6093 18.3832 36.8964 17.6568 37.6658C16.851 38.5202 15.9135 39.3274 15.0414 39.7745C14.6498 39.9754 14.2139 40.2513 13.7649 40.5262C13.1612 40.896 12.52 41.2708 11.8805 41.5096C11.3521 41.7072 10.8507 41.748 10.4137 41.7762C10.2765 41.7854 10.1447 41.7941 10.0186 41.8062C9.61915 42.0042 9.23182 42.191 8.82533 42.3822C8.77216 42.4403 8.71662 42.503 8.66109 42.5666C8.38232 42.8859 8.00988 43.2864 7.49723 43.6153C6.67531 44.1395 5.84769 44.3385 4.97495 44.5261C4.30331 44.6688 3.59367 44.8078 2.82744 45.0784C2.28611 45.2686 1.73137 45.5123 1.13304 45.757C0.278989 46.1116 -0.610512 46.4475 -1.23042 46.5175C-1.4677 46.5451 -1.69519 46.4733 -1.9206 46.401C-1.92164 46.4005 -1.92268 46.3999 -1.92372 46.3994C-1.93902 46.3945 -1.95435 46.3898 -1.96965 46.3849C-3.44369 46.8077 -4.94866 47.1949 -6.43836 47.5438C-6.56374 47.5954 -6.69135 47.6467 -6.81861 47.6971C-7.44799 47.9449 -8.04582 48.175 -8.42462 48.4318C-8.84074 48.7117 -9.93607 48.9868 -11.1052 49.2514C-11.2689 49.2885 -11.4347 49.3255 -11.601 49.3626C-12.2057 49.4989 -12.7908 49.6346 -13.2945 49.7787C-13.6603 49.8849 -14.0414 49.7948 -14.4181 49.699C-14.7669 49.6095 -15.1425 49.5178 -15.5212 49.5779C-15.7104 49.6081 -15.9228 49.6759 -16.1415 49.7472C-16.336 49.8101 -16.5342 49.8758 -16.7557 49.9226C-16.9608 49.9659 -17.4101 49.929 -18.0016 49.8779C-18.3581 49.8458 -18.7793 49.809 -19.2035 49.7805C-20.3322 49.9138 -21.4645 50.0281 -22.6063 50.1192C-22.8448 50.2327 -23.0479 50.3771 -23.2071 50.5606C-23.3243 50.6923 -23.4246 50.8491 -23.5267 51.0091C-23.6665 51.2269 -23.8067 51.4518 -24.0092 51.6313C-24.1689 51.7716 -24.3561 51.8277 -24.4805 51.77C-24.5384 51.7431 -24.5827 51.6922 -24.6228 51.6463C-24.6685 51.5936 -24.712 51.5467 -24.7632 51.548C-24.8002 51.549 -24.8388 51.5862 -24.8862 51.6312C-24.9617 51.7031 -25.0601 51.7959 -25.2072 51.7983C-25.7647 51.8074 -26.3874 51.7689 -27.0094 51.724C-27.697 51.6745 -28.3669 51.6178 -28.9036 51.6211C-29.5054 51.6252 -30.3636 51.4394 -31.2004 51.2405C-31.7834 51.1023 -32.3745 50.9573 -32.849 50.8776C-32.8684 50.8743 -32.8876 50.8712 -32.9066 50.8684C-33.4929 50.7913 -34.1127 50.7883 -34.7145 50.7617C-35.4671 50.7293 -36.1871 50.6598 -36.7359 50.3958C-36.8451 50.3428 -36.9511 50.1605 -37.0796 49.9312C-37.1723 49.7682 -37.2705 49.583 -37.3905 49.4025C-38.0819 49.2032 -38.7501 48.9746 -39.3876 48.7305C-39.4173 48.7414 -39.448 48.7522 -39.4789 48.7634C-39.4795 48.7638 -39.48 48.7641 -39.4806 48.7644C-40.1665 49.0219 -41.1531 49.3427 -41.9664 48.5682C-42.168 48.3735 -42.2472 48.1384 -42.3179 47.927C-42.3897 47.7182 -42.4432 47.5358 -42.6022 47.4305C-42.7813 47.3116 -43.0579 47.294 -43.346 47.2788C-43.7597 47.2532 -44.2139 47.2245 -44.5322 46.8944C-44.554 46.8718 -44.5773 46.8473 -44.6019 46.8222C-44.8198 46.5912 -45.1692 46.2336 -45.4055 45.7406C-46.544 45.0677 -47.6461 44.37 -48.7289 43.6593C-50.5436 42.4684 -52.285 41.2526 -54.0324 40.0243C-54.8742 39.4297 -55.5137 38.5463 -55.7882 37.5545C-56.0545 36.566 -55.9583 35.543 -55.4796 34.7001C-55.0024 33.8562 -54.1747 33.2488 -53.1935 32.9659C-52.205 32.6882 -51.1257 32.7751 -50.1906 33.1775C-48.6577 33.8405 -47.1309 34.4931 -45.6086 35.1414C-45.5225 35.1653 -45.4369 35.1897 -45.3526 35.2147C-44.7338 35.3961 -44.0792 35.4384 -43.4315 35.4733C-43.2823 35.4815 -43.134 35.4889 -42.9876 35.4971Z" fill="#005299"/>
<path d="M121.065 -4.30492C122.795 -3.87609 125.599 -2.12507 127.143 -1.18296C127.171 -1.1659 127.199 -1.14908 127.228 -1.13161C127.598 -0.905384 127.953 -0.708515 128.365 -0.482296C129.358 0.0577575 130.709 0.817136 133.355 2.45722C134.187 2.85362 134.978 3.22446 135.771 3.58265C136.374 3.85403 136.963 4.11043 137.521 4.32987C137.766 4.42673 138.053 4.53151 138.223 4.58735C138.407 4.65409 138.585 4.67463 138.271 4.63355C143.566 4.55283 153.566 1.70382 161.257 -0.758653C161.373 -0.80524 161.491 -0.852421 161.611 -0.900823C162.204 -1.13989 162.831 -1.3974 163.463 -1.65834C165.156 -2.36814 167.174 -3.26772 168.57 -3.73243C170.996 -4.5522 172.673 -5.05123 174.055 -5.44754C179.797 -7.57303 185.585 -9.57238 191.416 -11.4592C193.241 -12.0442 195.026 -12.7635 196.787 -13.6034C198.959 -14.636 201.098 -15.8584 203.291 -17.147C205.311 -18.3323 207.391 -19.5636 209.583 -20.6943C210.073 -20.9852 210.557 -21.2676 211.038 -21.5409C211.715 -21.9314 212.337 -22.3078 212.944 -22.681C214.345 -23.5431 215.555 -24.335 216.583 -24.9476C219.06 -26.4141 221.901 -27.9652 223.954 -29.2282C224.283 -29.4286 224.609 -29.6322 224.894 -29.813C226.42 -30.971 227.882 -32.1806 229.312 -33.4568C229.433 -33.5071 229.559 -33.5596 229.687 -33.613C231.211 -34.2394 232.588 -35.4724 234.96 -37.5648C235.093 -37.6797 235.23 -37.7958 235.371 -37.913C236.598 -38.9381 238.056 -39.9973 239.817 -41.0789C240.952 -41.7735 241.636 -41.9378 242.192 -42.076C242.355 -42.116 242.508 -42.153 242.658 -42.1982C243.172 -42.353 243.577 -42.7451 244.059 -43.205C244.682 -43.8007 245.438 -44.511 246.694 -44.9418C250.693 -46.2995 251.977 -47.6128 252.881 -48.614C253.148 -48.9087 253.378 -49.173 253.633 -49.4065C254.457 -50.1539 255.755 -50.9095 256.459 -51.3577C256.517 -51.3934 256.573 -51.4351 256.625 -51.4801C257.577 -52.4943 258.906 -53.9904 259.924 -55.1452C260.342 -55.625 261.007 -56.1831 261.778 -56.7997C262.579 -57.4422 263.511 -58.163 264.449 -58.9937C266.821 -61.0854 268.094 -62.1324 269.114 -62.9885C269.406 -63.2318 269.676 -63.4565 269.946 -63.6821C270.799 -64.3951 271.875 -65.2456 272.955 -66.1039C274.248 -67.1315 275.543 -68.1728 276.479 -69.0078C277.874 -69.956 279.261 -70.9147 280.553 -71.8701C280.717 -72.019 281.267 -72.3387 281.461 -72.4444C282.981 -73.0891 284.431 -73.6681 285.843 -74.2688C286.6 -74.59 287.369 -74.8265 288.119 -74.9748C288.165 -75.0017 288.311 -75.0643 288.359 -75.088C289.351 -75.284 290.245 -75.2657 290.988 -75.1101C292.468 -74.787 293.324 -74.0109 293.589 -73.063C293.855 -72.1079 293.4 -71.0141 292.541 -69.9951C292.115 -69.484 291.631 -69.0109 291.165 -68.5787L291.362 -68.6718C290.744 -68.1155 290.024 -67.6124 289.251 -67.1963C287.811 -66.4211 286.374 -65.6885 285.018 -64.9676L285.785 -65.453C284.325 -64.1602 282.845 -62.9521 281.363 -61.7803C278.012 -59.1347 274.625 -56.664 271.293 -54.2394C268.969 -52.5442 266.666 -50.8564 264.616 -49.1284C264.41 -48.954 264.201 -48.7743 264.002 -48.5986C263.396 -47.9062 262.843 -47.2064 262.514 -46.6655C261.212 -44.9372 260.038 -44.017 259.103 -43.2754C257.769 -42.2582 256.736 -41.7996 255.861 -41.4043C255.257 -41.1356 254.731 -40.9109 254.242 -40.6209C253.979 -40.4648 253.623 -40.2472 253.197 -39.9892C251.456 -38.9282 248.556 -37.2442 245.922 -35.9601C244.751 -35.3893 243.378 -34.7811 242.129 -34.1558C241.029 -33.6077 240.023 -33.0409 239.296 -32.524C238.81 -32.1749 238.405 -31.8407 238.133 -31.5569C236.916 -30.2769 235.238 -28.9428 233.716 -27.8304C232.258 -26.7578 230.959 -25.8828 230.334 -25.2151C229.586 -24.4176 228.794 -23.9465 227.606 -23.2807C226.784 -22.8216 225.76 -22.2624 224.414 -21.4753C222.853 -20.5653 221.686 -20.058 220.687 -19.6322C219.278 -19.0358 218.225 -18.6138 216.818 -17.6443C215.809 -16.9521 214.758 -16.3048 213.729 -15.7726C213.206 -15.4991 212.705 -15.251 212.232 -15.0437C211.633 -14.7818 210.973 -14.4242 210.286 -14.0365C209.376 -13.5244 208.419 -12.9596 207.484 -12.5198C206.714 -12.1574 206.006 -11.9627 205.375 -11.7906C205.179 -11.7369 204.99 -11.6852 204.809 -11.631C204.216 -11.2818 203.617 -10.931 203.013 -10.5823C202.93 -10.4995 202.843 -10.4115 202.752 -10.3198C202.295 -9.85957 201.726 -9.2947 200.92 -8.74732C199.645 -7.88196 198.364 -7.37831 197.005 -6.905C195.943 -6.5362 194.831 -6.1836 193.582 -5.70181C193.546 -5.68776 193.509 -5.67357 193.472 -5.65924C192.699 -5.35762 191.852 -4.97325 191.017 -4.58907C189.716 -3.9912 188.434 -3.38812 187.498 -3.10876C187.143 -3.0025 186.806 -3.00232 186.474 -3.00291C186.472 -3.00311 186.471 -3.0033 186.469 -3.00349C186.447 -3.00353 186.424 -3.00336 186.401 -3.00337C184.202 -2.0585 182.027 -1.08139 179.859 -0.0737561C179.679 0.0339431 179.498 0.141616 179.32 0.247659C178.435 0.772898 177.594 1.28076 177.075 1.71981C176.518 2.19289 174.969 2.99 173.322 3.85077C172.246 4.41247 171.136 4.99578 170.229 5.5214C169.71 5.824 169.117 5.94461 168.516 6.06136C167.954 6.1699 167.367 6.28478 166.752 6.5619C166.743 6.56597 166.734 6.57006 166.725 6.57418C166.446 6.70273 166.156 6.87037 165.846 7.04847C165.564 7.20992 165.268 7.37919 164.947 7.53546C164.649 7.68038 163.938 7.87866 163.027 8.12252C162.463 8.27372 161.824 8.44209 161.155 8.62757C159.458 9.31371 157.751 9.97008 156.024 10.5959C155.691 10.8167 155.42 11.0505 155.221 11.3029C155.079 11.4839 154.971 11.6805 154.859 11.8814C154.708 12.1549 154.551 12.4371 154.292 12.7026C154.089 12.9099 153.82 13.0491 153.612 13.0509C153.513 13.052 153.43 13.024 153.354 12.9986C153.267 12.9695 153.189 12.9436 153.112 12.9679C153.056 12.9856 153.008 13.0387 152.948 13.1032C152.853 13.2063 152.732 13.3388 152.503 13.4088C151.653 13.6684 150.672 13.9121 149.701 14.139C148.619 14.3925 147.548 14.6244 146.701 14.8485C145.744 15.1015 144.332 15.2693 142.831 15.378C141.786 15.4533 140.701 15.5002 139.656 15.5266C138.913 15.5401 138.145 15.6096 137.022 15.5373C136.46 15.4937 135.901 15.383 135.594 15.3236C134.089 15.002 133.152 14.6791 132.397 14.2376C132.248 14.1479 132.094 13.9188 131.929 13.6414C131.818 13.4472 131.689 13.2234 131.525 12.9959C130.565 12.5622 129.672 12.1281 128.756 11.6649C128.716 11.668 128.675 11.6708 128.633 11.674C128.633 11.6742 128.632 11.6744 128.631 11.6746C127.694 11.7453 126.369 11.8123 125.164 10.7485C124.857 10.4776 124.709 10.194 124.593 9.94731C124.474 9.70278 124.368 9.48378 124.127 9.32244C123.853 9.13931 123.46 9.044 123.043 8.94471C122.454 8.80305 121.787 8.63839 121.284 8.18866C121.249 8.15782 121.212 8.12444 121.173 8.09006C120.803 7.76285 120.264 7.2826 119.805 6.65271C118.02 5.57898 116.253 4.48348 114.497 3.37639C111.575 1.53364 108.676 -0.350358 105.791 -2.2089C104.388 -3.11399 103.22 -4.27977 102.543 -5.4702C101.867 -6.66222 101.715 -7.78142 102.156 -8.64512C102.564 -9.52468 103.622 -10.0477 105.038 -10.1136C106.452 -10.1807 108.095 -9.7916 109.616 -9.06505C112.111 -7.8695 114.552 -6.69228 117.009 -5.50113C117.142 -5.44966 117.276 -5.39718 117.409 -5.34383C118.403 -4.94431 119.391 -4.70665 120.382 -4.46951C120.61 -4.4153 120.837 -4.361 121.065 -4.30492Z" fill="#005299"/>
</g>
</svg>
