<svg width="1311" height="65" viewBox="0 0 1311 65" fill="none" xmlns="http://www.w3.org/2000/svg">
<g clip-path="url(#clip0_2023_8557)">
<path d="M1311 45.5L1295.43 41.1742C1279.77 36.7587 1248.18 28.2414 1217.23 23.8259C1186.18 19.5001 1155.32 19.5001 1123.45 18.4242C1092.5 17.2587 1061.55 15.2414 1029.68 18.4242C998.818 21.7414 967.773 30.2587 936.819 36.8259C905.227 43.2586 874 47.7414 843.046 44.4241C811.545 41.2414 780.227 30.2586 749.273 29.25C717.955 28.2414 686.454 36.7586 655.5 42.25C624.273 47.7414 592.681 49.7586 561.727 50.9241C530.682 52 499.819 52 467.954 49.8258C437 47.7413 406.046 43.2586 374.181 35.75C343.318 28.2414 312.273 17.2586 281.319 13C249.727 8.74139 218.5 10.7586 187.546 19.5C156.045 28.2413 124.727 43.2586 93.7728 44.4241C62.4545 45.4999 30.9541 32.4999 -0.0001195 27.0758C-31.2274 21.7413 -62.8188 23.7586 -93.7729 25.9999C-124.818 28.2413 -155.681 30.2586 -187.546 34.6741C-218.5 38.9999 -249.454 45.4999 -281.319 46.5758C-312.182 47.7413 -343.227 43.2585 -374.181 36.8258C-405.773 30.2585 -437 21.7413 -467.954 24.9241C-499.455 28.2413 -530.773 43.2585 -561.727 50.924C-593.046 58.4998 -624.546 58.4998 -655.5 49.8257C-686.727 41.2412 -718.319 23.7585 -749.273 20.5758C-780.318 17.2585 -811.181 28.2413 -843.046 33.5757C-874 38.9999 -904.954 38.9999 -920.431 38.9999L-936.455 38.9998L-936.455 -8.20378e-05L-920.795 -8.06688e-05C-905.227 -7.93078e-05 -874 -7.65779e-05 -843.046 -7.38718e-05C-811.546 -7.11179e-05 -780.227 -6.838e-05 -749.273 -6.56739e-05C-717.955 -6.29359e-05 -686.454 -6.01821e-05 -655.5 -5.7476e-05C-624.273 -5.4746e-05 -592.681 -5.19842e-05 -561.727 -4.92781e-05C-530.682 -4.6564e-05 -499.819 -4.38659e-05 -467.954 -4.10802e-05C-437 -3.83741e-05 -406.046 -3.5668e-05 -374.181 -3.28823e-05C-343.318 -3.01842e-05 -312.273 -2.74701e-05 -281.319 -2.4764e-05C-249.727 -2.20022e-05 -218.5 -1.92722e-05 -187.546 -1.65661e-05C-156.046 -1.38123e-05 -124.727 -1.10743e-05 -93.7729 -8.36823e-06C-62.4547 -5.63031e-06 -30.9542 -2.87645e-06 -0.000117133 -1.70353e-07C31.2272 2.55962e-06 62.8187 5.32145e-06 93.7728 8.02754e-06C124.818 1.07416e-05 155.681 1.34397e-05 187.546 1.62254e-05C218.5 1.89315e-05 249.454 2.16376e-05 281.319 2.44233e-05C312.182 2.71215e-05 343.227 2.98355e-05 374.181 3.25416e-05C405.773 3.53034e-05 437 3.80334e-05 467.954 4.07395e-05C499.455 4.34934e-05 530.773 4.62313e-05 561.727 4.89374e-05C593.045 5.16753e-05 624.546 5.44292e-05 655.5 5.71353e-05C686.727 5.98653e-05 718.319 6.26271e-05 749.273 6.53332e-05C780.318 6.80472e-05 811.181 7.07454e-05 843.046 7.35311e-05C874 7.62372e-05 904.954 7.89433e-05 936.819 8.1729e-05C967.682 8.44271e-05 998.727 8.71411e-05 1029.68 8.98473e-05C1061.27 9.26091e-05 1092.5 9.5339e-05 1123.45 9.80451e-05C1154.95 0.000100799 1186.27 0.000103537 1217.23 0.000106243C1248.55 0.000108981 1280.05 0.000111735 1295.52 0.000113088L1311 0.000114441L1311 45.5Z" fill="url(#paint0_linear_2023_8557)"/>
<path opacity="0.9" d="M1311 32.5001L1295.43 32.5001C1279.77 32.5001 1248.18 32.5001 1217.23 37.9242C1186.18 43.2587 1155.32 54.2414 1123.45 58.5C1092.5 62.7586 1061.55 60.7414 1029.68 57.4241C998.818 54.2414 967.773 49.7586 936.819 45.5C905.227 41.2414 874 36.7586 843.046 36.8259C811.545 36.7586 780.227 41.2414 749.273 39C717.955 36.7586 686.454 28.2414 655.5 29.25C624.273 30.2586 592.681 41.2414 561.727 42.25C530.682 43.2586 499.819 34.7414 467.954 35.75C437 36.7586 406.046 47.7413 374.181 48.75C343.318 49.7586 312.273 41.2413 281.319 36.8258C249.727 32.5 218.5 32.5 187.546 31.4241C156.045 30.2586 124.727 28.2413 93.7728 31.4241C62.4545 34.7413 30.9541 43.2586 -0.000120628 44.4241C-31.2274 45.4999 -62.8188 38.9999 -93.7729 36.8258C-124.818 34.7413 -155.681 36.7585 -187.546 40.0758C-218.5 43.2585 -249.454 47.7413 -281.319 47.674C-312.182 47.7413 -343.227 43.2585 -374.181 42.2499C-405.773 41.2413 -437 43.2585 -467.954 46.5757C-499.455 49.7585 -530.773 54.2412 -561.727 55.2499C-593.046 56.2585 -624.546 54.2412 -655.5 54.174C-686.727 54.2412 -718.319 56.2585 -749.273 48.7499C-780.318 41.2412 -811.181 23.7585 -843.046 16.2499C-874 8.74129 -904.954 10.7585 -920.431 11.924L-936.455 12.9999L-936.455 -7.44084e-05L-920.795 -7.30394e-05C-905.227 -7.16784e-05 -874 -6.89485e-05 -843.046 -6.62424e-05C-811.546 -6.34885e-05 -780.227 -6.07506e-05 -749.273 -5.80445e-05C-717.955 -5.53065e-05 -686.454 -5.25527e-05 -655.5 -4.98466e-05C-624.273 -4.71166e-05 -592.681 -4.43548e-05 -561.727 -4.16487e-05C-530.682 -3.89346e-05 -499.819 -3.62365e-05 -467.954 -3.34508e-05C-437 -3.07447e-05 -406.046 -2.80386e-05 -374.181 -2.52529e-05C-343.318 -2.25548e-05 -312.273 -1.98407e-05 -281.319 -1.71346e-05C-249.727 -1.43728e-05 -218.5 -1.16428e-05 -187.546 -8.93673e-06C-156.046 -6.18288e-06 -124.727 -3.44494e-06 -93.7729 -7.38839e-07C-62.4547 1.99909e-06 -30.9542 4.75295e-06 -0.000116745 7.45904e-06C31.2272 1.0189e-05 62.8187 1.29508e-05 93.7728 1.56569e-05C124.818 1.8371e-05 155.681 2.10691e-05 187.546 2.38548e-05C218.5 2.65609e-05 249.454 2.9267e-05 281.319 3.20527e-05C312.182 3.47509e-05 343.227 3.74649e-05 374.181 4.0171e-05C405.773 4.29328e-05 437 4.56628e-05 467.954 4.83689e-05C499.455 5.11228e-05 530.773 5.38607e-05 561.727 5.65668e-05C593.045 5.93047e-05 624.546 6.20586e-05 655.5 6.47647e-05C686.727 6.74947e-05 718.319 7.02565e-05 749.273 7.29626e-05C780.318 7.56766e-05 811.181 7.83748e-05 843.046 8.11605e-05C874 8.38666e-05 904.954 8.65727e-05 936.819 8.93583e-05C967.682 9.20565e-05 998.727 9.47705e-05 1029.68 9.74766e-05C1061.27 0.000100238 1092.5 0.000102968 1123.45 0.000105675C1154.95 0.000108428 1186.27 0.000111166 1217.23 0.000113872C1248.55 0.00011661 1280.05 0.000119364 1295.52 0.000120717L1311 0.00012207L1311 32.5001Z" fill="url(#paint1_linear_2023_8557)"/>
<path opacity="0.8" d="M1311 6.50011L1295.43 9.75011C1279.77 13.0001 1248.18 19.5001 1217.23 22.7501C1186.18 26.0001 1155.32 26.0001 1123.45 31.4242C1092.5 36.7587 1061.55 47.7414 1029.68 48.75C998.818 49.7586 967.773 41.2414 936.819 34.6742C905.227 28.2414 874 23.7587 843.046 19.5C811.545 15.2414 780.227 10.7587 749.273 18.4242C717.955 26 686.454 45.5 655.5 48.75C624.273 52 592.681 39 561.727 36.8259C530.682 34.7414 499.819 43.2586 467.954 42.25C437 41.2414 406.046 30.2586 374.181 22.75C343.318 15.2414 312.273 10.7586 281.319 11.9242C249.727 13 218.5 19.5 187.546 20.5759C156.045 21.7414 124.727 17.2586 93.7728 21.6741C62.4545 26 30.9541 38.9999 -0.00012155 45.4999C-31.2274 51.9999 -62.8188 51.9999 -93.7729 50.924C-124.818 49.7585 -155.681 47.7413 -187.546 41.1741C-218.5 34.7413 -249.454 23.7586 -281.319 18.4241C-312.182 13 -343.227 13 -374.181 15.1741C-405.773 17.2586 -437 21.7413 -467.954 20.5758C-499.455 19.4999 -530.773 12.9999 -561.727 17.3258C-593.046 21.7413 -624.546 36.7585 -655.5 37.924C-686.727 38.9999 -718.319 25.9999 -749.273 23.8258C-780.318 21.7413 -811.181 30.2585 -843.046 30.3257C-874 30.2585 -904.954 21.7413 -920.431 17.3258L-936.455 12.9999L-936.455 -7.05937e-05L-920.795 -6.92247e-05C-905.227 -6.78637e-05 -874 -6.51338e-05 -843.046 -6.24277e-05C-811.546 -5.96738e-05 -780.227 -5.69359e-05 -749.273 -5.42298e-05C-717.955 -5.14918e-05 -686.454 -4.8738e-05 -655.5 -4.60319e-05C-624.273 -4.33019e-05 -592.681 -4.05401e-05 -561.727 -3.7834e-05C-530.682 -3.51199e-05 -499.819 -3.24218e-05 -467.954 -2.96361e-05C-437 -2.693e-05 -406.046 -2.42239e-05 -374.181 -2.14382e-05C-343.318 -1.87401e-05 -312.273 -1.6026e-05 -281.319 -1.33199e-05C-249.727 -1.05581e-05 -218.5 -7.82814e-06 -187.546 -5.12203e-06C-156.046 -2.36818e-06 -124.727 3.69754e-07 -93.7729 3.07586e-06C-62.4547 5.81379e-06 -30.9542 8.56765e-06 -0.000117572 1.12737e-05C31.2272 1.40037e-05 62.8187 1.67655e-05 93.7728 1.94716e-05C124.818 2.21857e-05 155.681 2.48838e-05 187.546 2.76695e-05C218.5 3.03756e-05 249.454 3.30817e-05 281.319 3.58674e-05C312.182 3.85656e-05 343.227 4.12796e-05 374.181 4.39857e-05C405.773 4.67475e-05 437 4.94775e-05 467.954 5.21836e-05C499.455 5.49375e-05 530.773 5.76754e-05 561.727 6.03815e-05C593.045 6.31194e-05 624.546 6.58733e-05 655.5 6.85794e-05C686.727 7.13094e-05 718.319 7.40712e-05 749.273 7.67773e-05C780.318 7.94913e-05 811.181 8.21895e-05 843.046 8.49752e-05C874 8.76813e-05 904.954 9.03874e-05 936.819 9.3173e-05C967.682 9.58712e-05 998.727 9.85852e-05 1029.68 0.000101291C1061.27 0.000104053 1092.5 0.000106783 1123.45 0.000109489C1154.95 0.000112243 1186.27 0.000114981 1217.23 0.000117687C1248.55 0.000120425 1280.05 0.000123179 1295.52 0.000124532L1311 0.000125885L1311 6.50011Z" fill="url(#paint2_linear_2023_8557)"/>
</g>
<defs>
<linearGradient id="paint0_linear_2023_8557" x1="1311" y1="0.000114441" x2="1311" y2="56.4757" gradientUnits="userSpaceOnUse">
<stop stop-color="#314659"/>
<stop offset="1" stop-color="#0DA7A7"/>
</linearGradient>
<linearGradient id="paint1_linear_2023_8557" x1="1311" y1="0.00012207" x2="1311" y2="60.9166" gradientUnits="userSpaceOnUse">
<stop stop-color="#314659"/>
<stop offset="1" stop-color="#0DA7A7"/>
</linearGradient>
<linearGradient id="paint2_linear_2023_8557" x1="1311" y1="0.000125885" x2="1311" y2="51.4564" gradientUnits="userSpaceOnUse">
<stop stop-color="#314659"/>
<stop offset="1" stop-color="#0DA7A7"/>
</linearGradient>
<clipPath id="clip0_2023_8557">
<rect width="1311" height="64.9999" fill="white" transform="translate(1311 65) rotate(-180)"/>
</clipPath>
</defs>
</svg>
