<svg width="24" height="24" viewBox="0 0 24 24" fill="none" xmlns="http://www.w3.org/2000/svg">
<path d="M14.53 3.46999L12.53 1.46999C12.52 1.45999 12.51 1.45999 12.51 1.44999C12.45 1.38999 12.37 1.33999 12.29 1.29999C12.28 1.29999 12.28 1.29999 12.27 1.28999C12.19 1.25999 12.11 1.24999 12.03 1.23999C12 1.23999 11.98 1.23999 11.95 1.23999C11.89 1.23999 11.83 1.25999 11.77 1.27999C11.74 1.28999 11.72 1.29999 11.7 1.30999C11.62 1.34999 11.54 1.38999 11.48 1.45999L9.48 3.45999C9.19 3.74999 9.19 4.22999 9.48 4.51999C9.77 4.80999 10.25 4.80999 10.54 4.51999L11.26 3.79999V8.99999C11.26 9.40999 11.6 9.74999 12.01 9.74999C12.42 9.74999 12.75 9.40999 12.75 8.99999V3.80999L13.47 4.52999C13.62 4.67999 13.81 4.74999 14 4.74999C14.19 4.74999 14.38 4.67999 14.53 4.52999C14.82 4.23999 14.82 3.75999 14.53 3.46999Z" fill="white"/>
<path opacity="0.4" d="M16.19 6H7.81C4.17 6 2 8.17 2 11.81V16.18C2 19.83 4.17 22 7.81 22H16.18C19.82 22 21.99 19.83 21.99 16.19V11.82C22 8.17 19.83 6 16.19 6Z" fill="white"/>
<path d="M21.3 12.2305H17.82C16.84 12.2305 15.97 12.7705 15.53 13.6505L14.69 15.3105C14.49 15.7105 14.09 15.9605 13.65 15.9605H10.37C10.06 15.9605 9.62 15.8905 9.33 15.3105L8.49 13.6605C8.05 12.7905 7.17 12.2405 6.2 12.2405H2.7C2.31 12.2405 2 12.5505 2 12.9405V16.2005C2 19.8305 4.18 22.0005 7.82 22.0005H16.2C19.63 22.0005 21.74 20.1205 22 16.7805V12.9305C22 12.5505 21.69 12.2305 21.3 12.2305Z" fill="white"/>
</svg>
