<svg width="24" height="25" viewBox="0 0 24 25" fill="none" xmlns="http://www.w3.org/2000/svg">
<path opacity="0.4" d="M11.5994 3.72852C12.5315 3.40684 13.7554 3.42037 15.3845 3.80566L15.3865 3.80664L17.0564 4.19629C19.1027 4.67495 20.3113 5.39331 20.9285 6.3877C21.5456 7.38233 21.6522 8.78344 21.1736 10.8252L20.1931 15.0059C19.7833 16.7672 19.1921 17.913 18.4001 18.5908C17.6251 19.2541 16.5809 19.5332 15.1082 19.3916L15.0994 19.3906C14.63 19.353 14.1163 19.2687 13.5574 19.1338L13.5554 19.1328L11.8757 18.7334C9.83852 18.2497 8.63097 17.5313 8.01343 16.5371C7.43478 15.6055 7.304 14.318 7.68433 12.4785L7.76636 12.1035L8.74683 7.91406C8.94196 7.08475 9.17158 6.38436 9.44897 5.82031L9.44995 5.81738C9.99049 4.69934 10.6904 4.0422 11.5994 3.72852Z" fill="#F3F3F3" stroke="#F3F3F3"/>
<path d="M8.15894 6.33301C8.07951 6.56233 8.00547 6.80153 7.93628 7.0498L7.77319 7.68555L6.7937 11.875C6.29232 14.0135 6.33865 15.7357 7.16382 17.0645C7.93721 18.3097 9.32419 19.0967 11.2517 19.6074L11.6443 19.7061L13.324 20.1055C13.3834 20.1198 13.4429 20.1321 13.5017 20.1455C13.2114 20.2663 12.8967 20.3828 12.5554 20.4941L12.5535 20.4951L10.9763 21.0137C9.03793 21.6386 7.68151 21.6465 6.67749 21.1328C5.7362 20.651 4.98499 19.6494 4.37573 17.9287L4.25562 17.5752L2.97534 13.626H2.97632C2.35118 11.687 2.34054 10.3277 2.85229 9.32227C3.36373 8.31789 4.46574 7.52996 6.40308 6.90527L6.40601 6.9043L7.98608 6.38477L7.98511 6.38379C8.04345 6.36531 8.10202 6.35042 8.15894 6.33301Z" fill="#F3F3F3" stroke="#F3F3F3"/>
<path d="M12.6969 8.79416V8.79514L17.5475 10.0246H17.5485C17.6743 10.0561 17.7595 10.1902 17.7252 10.3283L17.7242 10.3322C17.701 10.428 17.5995 10.51 17.4899 10.51C17.4765 10.51 17.4632 10.5078 17.3961 10.4983L12.5729 9.2756L12.5709 9.27463C12.4452 9.24295 12.3606 9.10904 12.3951 8.97092C12.4266 8.84571 12.5594 8.76089 12.6969 8.79416Z" fill="#F3F3F3" stroke="#F3F3F3"/>
<path d="M11.7089 12.6652V12.6642L14.6171 13.4044L14.619 13.4054C14.7448 13.437 14.8293 13.571 14.7948 13.7091L14.7928 13.7159C14.7691 13.8158 14.6826 13.8896 14.5604 13.8898C14.5466 13.8898 14.5326 13.8875 14.4598 13.8771L11.5829 13.1456L11.5809 13.1447C11.4552 13.113 11.3706 12.9791 11.4052 12.8409C11.4368 12.7151 11.5707 12.6306 11.7089 12.6652Z" fill="#F3F3F3" stroke="#F3F3F3"/>
</svg>
